<svg xmlns="http://www.w3.org/2000/svg" xmlns:xlink="http://www.w3.org/1999/xlink" width="500" zoomAndPan="magnify" viewBox="0 0 375 374.999991" height="500" preserveAspectRatio="xMidYMid meet" version="1.0"><defs><g/><clipPath id="05b20f5ea4"><path d="M 161 106 L 215 106 L 215 119 L 161 119 Z M 161 106 " clip-rule="nonzero"/></clipPath><clipPath id="b59f84098d"><path d="M 105.578125 157.0625 L 105.578125 168.480469 C 105.578125 201.617188 132.441406 228.480469 165.578125 228.480469 L 209.421875 228.480469 C 242.558594 228.480469 269.421875 201.617188 269.421875 168.480469 L 269.421875 157.0625 C 269.421875 123.925781 242.558594 97.0625 209.421875 97.0625 L 165.578125 97.0625 C 132.441406 97.0625 105.578125 123.925781 105.578125 157.0625 Z M 105.578125 157.0625 " clip-rule="nonzero"/></clipPath><clipPath id="52a2b89ff9"><path d="M 109 144 L 122 144 L 122 181 L 109 181 Z M 109 144 " clip-rule="nonzero"/></clipPath><clipPath id="180b827655"><path d="M 105.578125 157.0625 L 105.578125 168.480469 C 105.578125 201.617188 132.441406 228.480469 165.578125 228.480469 L 209.421875 228.480469 C 242.558594 228.480469 269.421875 201.617188 269.421875 168.480469 L 269.421875 157.0625 C 269.421875 123.925781 242.558594 97.0625 209.421875 97.0625 L 165.578125 97.0625 C 132.441406 97.0625 105.578125 123.925781 105.578125 157.0625 Z M 105.578125 157.0625 " clip-rule="nonzero"/></clipPath><clipPath id="38ed7ee037"><path d="M 145 144 L 160 144 L 160 180 L 145 180 Z M 145 144 " clip-rule="nonzero"/></clipPath><clipPath id="94c760af95"><path d="M 105.578125 157.0625 L 105.578125 168.480469 C 105.578125 201.617188 132.441406 228.480469 165.578125 228.480469 L 209.421875 228.480469 C 242.558594 228.480469 269.421875 201.617188 269.421875 168.480469 L 269.421875 157.0625 C 269.421875 123.925781 242.558594 97.0625 209.421875 97.0625 L 165.578125 97.0625 C 132.441406 97.0625 105.578125 123.925781 105.578125 157.0625 Z M 105.578125 157.0625 " clip-rule="nonzero"/></clipPath><clipPath id="2d3438a17f"><path d="M 217 146 L 230 146 L 230 181 L 217 181 Z M 217 146 " clip-rule="nonzero"/></clipPath><clipPath id="b0628e7999"><path d="M 105.578125 157.0625 L 105.578125 168.480469 C 105.578125 201.617188 132.441406 228.480469 165.578125 228.480469 L 209.421875 228.480469 C 242.558594 228.480469 269.421875 201.617188 269.421875 168.480469 L 269.421875 157.0625 C 269.421875 123.925781 242.558594 97.0625 209.421875 97.0625 L 165.578125 97.0625 C 132.441406 97.0625 105.578125 123.925781 105.578125 157.0625 Z M 105.578125 157.0625 " clip-rule="nonzero"/></clipPath><clipPath id="5adb602693"><path d="M 254 145 L 268 145 L 268 180 L 254 180 Z M 254 145 " clip-rule="nonzero"/></clipPath><clipPath id="12bbbc9570"><path d="M 105.578125 157.0625 L 105.578125 168.480469 C 105.578125 201.617188 132.441406 228.480469 165.578125 228.480469 L 209.421875 228.480469 C 242.558594 228.480469 269.421875 201.617188 269.421875 168.480469 L 269.421875 157.0625 C 269.421875 123.925781 242.558594 97.0625 209.421875 97.0625 L 165.578125 97.0625 C 132.441406 97.0625 105.578125 123.925781 105.578125 157.0625 Z M 105.578125 157.0625 " clip-rule="nonzero"/></clipPath><clipPath id="5744846be3"><path d="M 154 158 L 223 158 L 223 228.3125 L 154 228.3125 Z M 154 158 " clip-rule="nonzero"/></clipPath><clipPath id="960afc090d"><path d="M 105.578125 157.0625 L 105.578125 168.480469 C 105.578125 201.617188 132.441406 228.480469 165.578125 228.480469 L 209.421875 228.480469 C 242.558594 228.480469 269.421875 201.617188 269.421875 168.480469 L 269.421875 157.0625 C 269.421875 123.925781 242.558594 97.0625 209.421875 97.0625 L 165.578125 97.0625 C 132.441406 97.0625 105.578125 123.925781 105.578125 157.0625 Z M 105.578125 157.0625 " clip-rule="nonzero"/></clipPath><clipPath id="483ad0c3a0"><path d="M 105.578125 181 L 162 181 L 162 207 L 105.578125 207 Z M 105.578125 181 " clip-rule="nonzero"/></clipPath><clipPath id="d223b94b6d"><path d="M 105.578125 157.0625 L 105.578125 168.480469 C 105.578125 201.617188 132.441406 228.480469 165.578125 228.480469 L 209.421875 228.480469 C 242.558594 228.480469 269.421875 201.617188 269.421875 168.480469 L 269.421875 157.0625 C 269.421875 123.925781 242.558594 97.0625 209.421875 97.0625 L 165.578125 97.0625 C 132.441406 97.0625 105.578125 123.925781 105.578125 157.0625 Z M 105.578125 157.0625 " clip-rule="nonzero"/></clipPath><clipPath id="e54ba2b024"><path d="M 214 181 L 269.078125 181 L 269.078125 207 L 214 207 Z M 214 181 " clip-rule="nonzero"/></clipPath><clipPath id="bfada55c52"><path d="M 105.578125 157.0625 L 105.578125 168.480469 C 105.578125 201.617188 132.441406 228.480469 165.578125 228.480469 L 209.421875 228.480469 C 242.558594 228.480469 269.421875 201.617188 269.421875 168.480469 L 269.421875 157.0625 C 269.421875 123.925781 242.558594 97.0625 209.421875 97.0625 L 165.578125 97.0625 C 132.441406 97.0625 105.578125 123.925781 105.578125 157.0625 Z M 105.578125 157.0625 " clip-rule="nonzero"/></clipPath><clipPath id="8c4ff4b672"><path d="M 124 97.0625 L 252 97.0625 L 252 179 L 124 179 Z M 124 97.0625 " clip-rule="nonzero"/></clipPath><clipPath id="8ac9fd95bf"><path d="M 105.578125 157.0625 L 105.578125 168.480469 C 105.578125 201.617188 132.441406 228.480469 165.578125 228.480469 L 209.421875 228.480469 C 242.558594 228.480469 269.421875 201.617188 269.421875 168.480469 L 269.421875 157.0625 C 269.421875 123.925781 242.558594 97.0625 209.421875 97.0625 L 165.578125 97.0625 C 132.441406 97.0625 105.578125 123.925781 105.578125 157.0625 Z M 105.578125 157.0625 " clip-rule="nonzero"/></clipPath><clipPath id="db60bfa697"><path d="M 83.242188 234.914062 L 291.757812 234.914062 L 291.757812 242.988281 L 83.242188 242.988281 Z M 83.242188 234.914062 " clip-rule="nonzero"/></clipPath></defs><g clip-path="url(#05b20f5ea4)"><g clip-path="url(#b59f84098d)"><path fill="#ffbd59" d="M 161.667969 111.140625 C 178.527344 104.527344 197.1875 104.820312 214.148438 110.941406 C 210.546875 113.691406 206.847656 116.3125 203.144531 118.929688 C 193.03125 115.886719 182.355469 116.476562 172.144531 118.667969 C 168.640625 116.148438 165.105469 113.726562 161.667969 111.140625 Z M 161.667969 111.140625 " fill-opacity="1" fill-rule="nonzero"/></g></g><g clip-path="url(#52a2b89ff9)"><g clip-path="url(#180b827655)"><path fill="#ffbd59" d="M 110.167969 180.511719 C 108.433594 167.613281 116.585938 155.828125 121.660156 144.5 C 122.28125 157.464844 116.648438 169.609375 110.167969 180.511719 Z M 110.167969 180.511719 " fill-opacity="1" fill-rule="nonzero"/></g></g><g clip-path="url(#38ed7ee037)"><g clip-path="url(#94c760af95)"><path fill="#ffbd59" d="M 145.789062 144.402344 C 151.679688 155.46875 156.066406 167.285156 159.308594 179.367188 C 156.460938 177.597656 153.546875 175.535156 152.433594 172.230469 C 148.339844 163.519531 145.363281 154.125 145.789062 144.402344 Z M 145.789062 144.402344 " fill-opacity="1" fill-rule="nonzero"/></g></g><g clip-path="url(#2d3438a17f)"><g clip-path="url(#b0628e7999)"><path fill="#ffbd59" d="M 217.191406 180.578125 C 217.746094 168.433594 223.347656 156.972656 229.304688 146.628906 C 230.972656 158.773438 224.328125 171.082031 217.191406 180.578125 Z M 217.191406 180.578125 " fill-opacity="1" fill-rule="nonzero"/></g></g><g clip-path="url(#5adb602693)"><g clip-path="url(#12bbbc9570)"><path fill="#ffbd59" d="M 254.316406 145.742188 C 260.242188 156.449219 264.566406 168.007812 267.511719 179.890625 C 257.527344 172.066406 254.414062 157.824219 254.316406 145.742188 Z M 254.316406 145.742188 " fill-opacity="1" fill-rule="nonzero"/></g></g><g clip-path="url(#5744846be3)"><g clip-path="url(#960afc090d)"><path fill="#ffbd59" d="M 219.941406 223.039062 C 212.738281 218.488281 204.03125 216.886719 196.171875 213.675781 C 196.171875 195.3125 196.238281 176.910156 196.007812 158.542969 C 193.488281 159.886719 190.96875 161.230469 188.480469 162.570312 C 185.957031 161.230469 183.4375 159.886719 180.949219 158.542969 C 180.71875 176.945312 180.785156 195.3125 180.785156 213.675781 C 172.929688 216.886719 164.253906 218.488281 157.015625 223.039062 C 156.394531 224.316406 155.183594 226.902344 154.5625 228.214844 C 165.855469 228.246094 177.152344 228.410156 188.445312 228.476562 C 199.742188 228.441406 211.070312 228.246094 222.332031 228.214844 C 221.773438 226.902344 220.5625 224.316406 219.941406 223.039062 Z M 219.941406 223.039062 " fill-opacity="1" fill-rule="nonzero"/></g></g><g clip-path="url(#483ad0c3a0)"><g clip-path="url(#d223b94b6d)"><path fill="#ffbd59" d="M 105.648438 181.820312 C 124.3125 181.167969 143.003906 181.296875 161.667969 181.789062 C 159.113281 188.796875 156.789062 196.71875 150.109375 200.910156 C 139.796875 208.832031 123.949219 207.785156 114.6875 198.75 C 109.839844 194.261719 107.910156 187.78125 105.648438 181.820312 Z M 105.648438 181.820312 " fill-opacity="1" fill-rule="nonzero"/></g></g><g clip-path="url(#e54ba2b024)"><g clip-path="url(#bfada55c52)"><path fill="#ffbd59" d="M 214.210938 181.429688 C 232.578125 181.460938 250.976562 181.398438 269.34375 181.558594 C 267.839844 195.605469 255.203125 206.898438 240.992188 206.246094 C 227.175781 206.410156 216.40625 194.425781 214.210938 181.429688 Z M 214.210938 181.429688 " fill-opacity="1" fill-rule="nonzero"/></g></g><g clip-path="url(#8c4ff4b672)"><g clip-path="url(#8ac9fd95bf)"><path fill="#ffbd59" d="M 250.914062 97.09375 C 230.058594 109.765625 209.300781 122.664062 188.28125 135.039062 C 166.347656 123.679688 145.917969 109.273438 124.34375 97.0625 C 124.246094 124.136719 123.722656 151.210938 124.539062 178.253906 C 130.628906 178.222656 136.652344 178.222656 142.742188 178.222656 C 143.59375 162.308594 143.203125 146.367188 143.167969 130.421875 C 158.097656 139.589844 172.992188 148.820312 188.085938 157.695312 L 232.414062 131.667969 L 232.414062 178.1875 L 232.546875 178.089844 C 232.546875 178.121094 232.546875 178.15625 232.546875 178.1875 C 238.699219 178.222656 244.824219 178.222656 250.945312 178.222656 C 250.878906 151.210938 251.207031 124.136719 250.914062 97.09375 Z M 250.914062 97.09375 " fill-opacity="1" fill-rule="nonzero"/></g></g><g clip-path="url(#db60bfa697)"><path fill="#ffbd59" d="M 83.242188 234.914062 L 291.757812 234.914062 L 291.757812 242.988281 L 83.242188 242.988281 Z M 83.242188 234.914062 " fill-opacity="1" fill-rule="nonzero"/></g><g fill="#ffbd59" fill-opacity="1"><g transform="translate(92.235182, 272.088791)"><g><path d="M 16.847656 0 L 18.550781 0 L 14.761719 -17.398438 L 9.40625 -3.433594 L 4.054688 -17.398438 L 0.238281 0 L 1.96875 0 L 4.488281 -11.617188 L 9.40625 0.960938 L 14.304688 -11.617188 Z M 16.847656 0 "/></g></g></g><g fill="#ffbd59" fill-opacity="1"><g transform="translate(111.027216, 272.088791)"><g><path d="M 3.480469 0 L 3.480469 -16.320312 L 1.800781 -16.320312 L 1.800781 0 Z M 3.480469 0 "/></g></g></g><g fill="#ffbd59" fill-opacity="1"><g transform="translate(116.307222, 272.088791)"><g><path d="M 3.480469 0 L 3.480469 -7.296875 L 10.894531 -7.296875 L 10.894531 0 L 12.574219 0 L 12.574219 -16.320312 L 10.894531 -16.320312 L 10.894531 -8.976562 L 3.480469 -8.976562 L 3.480469 -16.320312 L 1.800781 -16.320312 L 1.800781 0 Z M 3.480469 0 "/></g></g></g><g fill="#ffbd59" fill-opacity="1"><g transform="translate(130.683254, 272.088791)"><g><path d="M 4.441406 -6 L 7.414062 -13.511719 L 10.367188 -6 Z M 14.566406 0 L 7.414062 -17.449219 L 0.238281 0 L 2.0625 0 L 3.816406 -4.441406 L 10.992188 -4.441406 L 12.742188 0 Z M 14.566406 0 "/></g></g></g><g fill="#ffbd59" fill-opacity="1"><g transform="translate(145.491279, 272.088791)"><g><path d="M 3.480469 0 L 3.480469 -16.320312 L 1.800781 -16.320312 L 1.800781 0 Z M 3.480469 0 "/></g></g></g><g fill="#ffbd59" fill-opacity="1"><g transform="translate(150.771285, 272.088791)"><g/></g></g><g fill="#ffbd59" fill-opacity="1"><g transform="translate(157.251296, 272.088791)"><g><path d="M 3.480469 -1.679688 L 3.480469 -16.320312 L 1.800781 -16.320312 L 1.800781 0 L 9.3125 0 L 9.3125 -1.679688 Z M 3.480469 -1.679688 "/></g></g></g><g fill="#ffbd59" fill-opacity="1"><g transform="translate(167.043318, 272.088791)"><g><path d="M 4.441406 -6 L 7.414062 -13.511719 L 10.367188 -6 Z M 14.566406 0 L 7.414062 -17.449219 L 0.238281 0 L 2.0625 0 L 3.816406 -4.441406 L 10.992188 -4.441406 L 12.742188 0 Z M 14.566406 0 "/></g></g></g><g fill="#ffbd59" fill-opacity="1"><g transform="translate(181.851342, 272.088791)"><g><path d="M 14.761719 1.320312 L 18.550781 -16.320312 L 16.847656 -16.320312 L 14.304688 -4.464844 L 9.40625 -17.28125 L 4.488281 -4.464844 L 1.96875 -16.320312 L 0.238281 -16.320312 L 4.054688 1.320312 L 9.40625 -12.886719 Z M 14.761719 1.320312 "/></g></g></g><g fill="#ffbd59" fill-opacity="1"><g transform="translate(200.643375, 272.088791)"><g/></g></g><g fill="#ffbd59" fill-opacity="1"><g transform="translate(207.123386, 272.088791)"><g><path d="M 16.175781 -8.207031 C 16.175781 -6.335938 15.503906 -4.753906 14.207031 -3.457031 C 12.886719 -2.136719 11.304688 -1.488281 9.457031 -1.488281 C 7.609375 -1.488281 6.023438 -2.136719 4.726562 -3.457031 C 3.40625 -4.753906 2.761719 -6.335938 2.761719 -8.207031 C 2.761719 -10.03125 3.40625 -11.617188 4.726562 -12.9375 C 6.023438 -14.230469 7.609375 -14.902344 9.457031 -14.902344 C 11.304688 -14.902344 12.886719 -14.230469 14.207031 -12.9375 C 15.503906 -11.617188 16.175781 -10.03125 16.175781 -8.207031 Z M 17.855469 -8.207031 C 17.855469 -9.359375 17.617188 -10.441406 17.183594 -11.472656 C 16.753906 -12.480469 16.152344 -13.367188 15.382812 -14.136719 C 14.617188 -14.878906 13.726562 -15.480469 12.71875 -15.910156 C 11.6875 -16.34375 10.609375 -16.585938 9.457031 -16.585938 C 8.304688 -16.585938 7.199219 -16.34375 6.191406 -15.910156 C 5.183594 -15.480469 4.296875 -14.878906 3.527344 -14.136719 C 2.761719 -13.367188 2.160156 -12.480469 1.726562 -11.472656 C 1.296875 -10.441406 1.078125 -9.359375 1.078125 -8.207031 C 1.078125 -7.054688 1.296875 -5.953125 1.726562 -4.945312 C 2.160156 -3.910156 2.761719 -3.023438 3.527344 -2.257812 C 4.296875 -1.488281 5.183594 -0.886719 6.191406 -0.457031 C 7.199219 -0.0234375 8.304688 0.191406 9.457031 0.191406 C 10.609375 0.191406 11.6875 -0.0234375 12.71875 -0.457031 C 13.726562 -0.886719 14.617188 -1.488281 15.382812 -2.257812 C 16.152344 -3.023438 16.753906 -3.910156 17.183594 -4.945312 C 17.617188 -5.953125 17.855469 -7.054688 17.855469 -8.207031 Z M 17.855469 -8.207031 "/></g></g></g><g fill="#ffbd59" fill-opacity="1"><g transform="translate(226.05942, 272.088791)"><g><path d="M 11.496094 -14.761719 L 11.496094 -16.320312 L 1.800781 -16.320312 L 1.800781 0 L 3.480469 0 L 3.480469 -7.367188 L 11.257812 -7.367188 L 11.257812 -8.953125 L 3.480469 -8.953125 L 3.480469 -14.761719 Z M 11.496094 -14.761719 "/></g></g></g><g fill="#ffbd59" fill-opacity="1"><g transform="translate(238.035444, 272.088791)"><g><path d="M 11.496094 -14.761719 L 11.496094 -16.320312 L 1.800781 -16.320312 L 1.800781 0 L 3.480469 0 L 3.480469 -7.367188 L 11.257812 -7.367188 L 11.257812 -8.953125 L 3.480469 -8.953125 L 3.480469 -14.761719 Z M 11.496094 -14.761719 "/></g></g></g><g fill="#ffbd59" fill-opacity="1"><g transform="translate(250.011468, 272.088791)"><g><path d="M 3.480469 0 L 3.480469 -16.320312 L 1.800781 -16.320312 L 1.800781 0 Z M 3.480469 0 "/></g></g></g><g fill="#ffbd59" fill-opacity="1"><g transform="translate(255.291474, 272.088791)"><g><path d="M 16.777344 -4.992188 L 14.929688 -4.992188 C 14.351562 -3.9375 13.558594 -3.070312 12.550781 -2.449219 C 11.542969 -1.800781 10.414062 -1.488281 9.214844 -1.488281 C 7.414062 -1.488281 5.878906 -2.136719 4.609375 -3.480469 C 3.359375 -4.753906 2.761719 -6.3125 2.761719 -8.136719 C 2.761719 -9.960938 3.359375 -11.519531 4.609375 -12.816406 C 5.183594 -13.414062 5.878906 -13.894531 6.671875 -14.257812 C 7.441406 -14.617188 8.207031 -14.808594 8.976562 -14.808594 C 9.71875 -14.808594 10.367188 -14.710938 10.945312 -14.542969 C 12.695312 -14.015625 14.015625 -12.960938 14.902344 -11.351562 L 16.753906 -11.351562 C 16.128906 -12.886719 15.144531 -14.136719 13.777344 -15.097656 C 12.382812 -16.054688 10.871094 -16.535156 9.214844 -16.535156 C 6.9375 -16.535156 5.015625 -15.695312 3.433594 -14.039062 C 2.6875 -13.273438 2.113281 -12.359375 1.703125 -11.351562 C 1.273438 -10.34375 1.078125 -9.265625 1.078125 -8.136719 C 1.078125 -5.832031 1.847656 -3.886719 3.433594 -2.257812 C 5.015625 -0.574219 6.9375 0.238281 9.214844 0.238281 C 10.871094 0.238281 12.382812 -0.238281 13.800781 -1.199219 C 15.167969 -2.160156 16.152344 -3.40625 16.777344 -4.992188 Z M 16.777344 -4.992188 "/></g></g></g><g fill="#ffbd59" fill-opacity="1"><g transform="translate(272.787509, 272.088791)"><g><path d="M 11.496094 0 L 11.496094 -1.558594 L 3.480469 -1.558594 L 3.480469 -7.367188 L 11.257812 -7.367188 L 11.257812 -8.953125 L 3.480469 -8.953125 L 3.480469 -14.761719 L 11.496094 -14.761719 L 11.496094 -16.320312 L 1.800781 -16.320312 L 1.800781 0 Z M 11.496094 0 "/></g></g></g><g fill="#ffbd59" fill-opacity="1"><g transform="translate(89.242831, 284.238811)"><g><path d="M 2.53125 -2 L 2.53125 0 L 1.84375 0 L 1.84375 -2 L 0 -5.015625 L 0.609375 -5.015625 C 0.660156 -5.015625 0.703125 -5 0.734375 -4.96875 C 0.773438 -4.9375 0.8125 -4.898438 0.84375 -4.859375 L 1.984375 -2.90625 C 2.023438 -2.820312 2.0625 -2.742188 2.09375 -2.671875 C 2.132812 -2.609375 2.164062 -2.539062 2.1875 -2.46875 C 2.21875 -2.539062 2.25 -2.609375 2.28125 -2.671875 C 2.3125 -2.742188 2.347656 -2.820312 2.390625 -2.90625 L 3.53125 -4.859375 C 3.550781 -4.898438 3.578125 -4.9375 3.609375 -4.96875 C 3.648438 -5 3.703125 -5.015625 3.765625 -5.015625 L 4.359375 -5.015625 Z M 2.53125 -2 "/></g></g></g><g fill="#ffbd59" fill-opacity="1"><g transform="translate(99.210878, 284.238811)"><g><path d="M 5.28125 -2.5 C 5.28125 -2.125 5.21875 -1.78125 5.09375 -1.46875 C 4.976562 -1.15625 4.8125 -0.882812 4.59375 -0.65625 C 4.375 -0.4375 4.113281 -0.265625 3.8125 -0.140625 C 3.507812 -0.015625 3.171875 0.046875 2.796875 0.046875 C 2.429688 0.046875 2.097656 -0.015625 1.796875 -0.140625 C 1.492188 -0.265625 1.234375 -0.4375 1.015625 -0.65625 C 0.796875 -0.882812 0.625 -1.15625 0.5 -1.46875 C 0.382812 -1.78125 0.328125 -2.125 0.328125 -2.5 C 0.328125 -2.875 0.382812 -3.21875 0.5 -3.53125 C 0.625 -3.851562 0.796875 -4.125 1.015625 -4.34375 C 1.234375 -4.570312 1.492188 -4.75 1.796875 -4.875 C 2.097656 -5.007812 2.429688 -5.078125 2.796875 -5.078125 C 3.171875 -5.078125 3.507812 -5.007812 3.8125 -4.875 C 4.113281 -4.75 4.375 -4.570312 4.59375 -4.34375 C 4.8125 -4.125 4.976562 -3.851562 5.09375 -3.53125 C 5.21875 -3.21875 5.28125 -2.875 5.28125 -2.5 Z M 4.578125 -2.5 C 4.578125 -2.8125 4.535156 -3.085938 4.453125 -3.328125 C 4.367188 -3.578125 4.25 -3.785156 4.09375 -3.953125 C 3.9375 -4.117188 3.75 -4.25 3.53125 -4.34375 C 3.3125 -4.4375 3.066406 -4.484375 2.796875 -4.484375 C 2.523438 -4.484375 2.28125 -4.4375 2.0625 -4.34375 C 1.84375 -4.25 1.65625 -4.117188 1.5 -3.953125 C 1.351562 -3.785156 1.234375 -3.578125 1.140625 -3.328125 C 1.054688 -3.085938 1.015625 -2.8125 1.015625 -2.5 C 1.015625 -2.195312 1.054688 -1.921875 1.140625 -1.671875 C 1.234375 -1.429688 1.351562 -1.226562 1.5 -1.0625 C 1.65625 -0.894531 1.84375 -0.765625 2.0625 -0.671875 C 2.28125 -0.578125 2.523438 -0.53125 2.796875 -0.53125 C 3.066406 -0.53125 3.3125 -0.578125 3.53125 -0.671875 C 3.75 -0.765625 3.9375 -0.894531 4.09375 -1.0625 C 4.25 -1.226562 4.367188 -1.429688 4.453125 -1.671875 C 4.535156 -1.921875 4.578125 -2.195312 4.578125 -2.5 Z M 4.578125 -2.5 "/></g></g></g><g fill="#ffbd59" fill-opacity="1"><g transform="translate(110.414433, 284.238811)"><g><path d="M 2.578125 -0.53125 C 2.785156 -0.53125 2.96875 -0.566406 3.125 -0.640625 C 3.289062 -0.710938 3.429688 -0.8125 3.546875 -0.9375 C 3.660156 -1.0625 3.742188 -1.210938 3.796875 -1.390625 C 3.859375 -1.566406 3.890625 -1.757812 3.890625 -1.96875 L 3.890625 -5.015625 L 4.578125 -5.015625 L 4.578125 -1.96875 C 4.578125 -1.675781 4.53125 -1.40625 4.4375 -1.15625 C 4.34375 -0.914062 4.207031 -0.703125 4.03125 -0.515625 C 3.863281 -0.335938 3.65625 -0.195312 3.40625 -0.09375 C 3.15625 0.0078125 2.878906 0.0625 2.578125 0.0625 C 2.265625 0.0625 1.984375 0.0078125 1.734375 -0.09375 C 1.492188 -0.195312 1.285156 -0.335938 1.109375 -0.515625 C 0.941406 -0.703125 0.8125 -0.914062 0.71875 -1.15625 C 0.625 -1.40625 0.578125 -1.675781 0.578125 -1.96875 L 0.578125 -5.015625 L 1.25 -5.015625 L 1.25 -1.96875 C 1.25 -1.757812 1.28125 -1.566406 1.34375 -1.390625 C 1.40625 -1.210938 1.488281 -1.0625 1.59375 -0.9375 C 1.707031 -0.8125 1.847656 -0.710938 2.015625 -0.640625 C 2.179688 -0.566406 2.367188 -0.53125 2.578125 -0.53125 Z M 2.578125 -0.53125 "/></g></g></g><g fill="#ffbd59" fill-opacity="1"><g transform="translate(121.16299, 284.238811)"><g><path d="M 2.03125 -2.59375 C 2.226562 -2.59375 2.398438 -2.613281 2.546875 -2.65625 C 2.703125 -2.707031 2.828125 -2.773438 2.921875 -2.859375 C 3.023438 -2.953125 3.101562 -3.054688 3.15625 -3.171875 C 3.207031 -3.296875 3.234375 -3.429688 3.234375 -3.578125 C 3.234375 -3.878906 3.132812 -4.101562 2.9375 -4.25 C 2.738281 -4.40625 2.445312 -4.484375 2.0625 -4.484375 L 1.3125 -4.484375 L 1.3125 -2.59375 Z M 4.34375 0 L 3.75 0 C 3.625 0 3.53125 -0.046875 3.46875 -0.140625 L 2.171875 -1.9375 C 2.128906 -1.988281 2.082031 -2.023438 2.03125 -2.046875 C 1.988281 -2.078125 1.921875 -2.09375 1.828125 -2.09375 L 1.3125 -2.09375 L 1.3125 0 L 0.640625 0 L 0.640625 -5.015625 L 2.0625 -5.015625 C 2.375 -5.015625 2.644531 -4.984375 2.875 -4.921875 C 3.113281 -4.859375 3.304688 -4.765625 3.453125 -4.640625 C 3.597656 -4.515625 3.707031 -4.363281 3.78125 -4.1875 C 3.851562 -4.019531 3.890625 -3.832031 3.890625 -3.625 C 3.890625 -3.445312 3.863281 -3.28125 3.8125 -3.125 C 3.757812 -2.96875 3.675781 -2.828125 3.5625 -2.703125 C 3.457031 -2.585938 3.328125 -2.484375 3.171875 -2.390625 C 3.023438 -2.304688 2.851562 -2.242188 2.65625 -2.203125 C 2.75 -2.148438 2.828125 -2.078125 2.890625 -1.984375 Z M 4.34375 0 "/></g></g></g><g fill="#ffbd59" fill-opacity="1"><g transform="translate(131.148535, 284.238811)"><g/></g></g><g fill="#ffbd59" fill-opacity="1"><g transform="translate(138.540558, 284.238811)"><g><path d="M 3.484375 -0.578125 L 3.484375 0 L 0.640625 0 L 0.640625 -5.015625 L 1.3125 -5.015625 L 1.3125 -0.578125 Z M 3.484375 -0.578125 "/></g></g></g><g fill="#ffbd59" fill-opacity="1"><g transform="translate(147.7351, 284.238811)"><g><path d="M 3.734375 -0.546875 L 3.734375 0 L 0.640625 0 L 0.640625 -5.015625 L 3.734375 -5.015625 L 3.734375 -4.46875 L 1.3125 -4.46875 L 1.3125 -2.796875 L 3.265625 -2.796875 L 3.265625 -2.265625 L 1.3125 -2.265625 L 1.3125 -0.546875 Z M 3.734375 -0.546875 "/></g></g></g><g fill="#ffbd59" fill-opacity="1"><g transform="translate(157.377646, 284.238811)"><g><path d="M 4.71875 -2.40625 L 4.71875 -0.484375 C 4.46875 -0.304688 4.195312 -0.171875 3.90625 -0.078125 C 3.625 0.015625 3.3125 0.0625 2.96875 0.0625 C 2.5625 0.0625 2.195312 0 1.875 -0.125 C 1.550781 -0.25 1.273438 -0.425781 1.046875 -0.65625 C 0.816406 -0.882812 0.640625 -1.15625 0.515625 -1.46875 C 0.390625 -1.78125 0.328125 -2.125 0.328125 -2.5 C 0.328125 -2.882812 0.382812 -3.234375 0.5 -3.546875 C 0.625 -3.867188 0.796875 -4.140625 1.015625 -4.359375 C 1.242188 -4.585938 1.515625 -4.765625 1.828125 -4.890625 C 2.148438 -5.015625 2.503906 -5.078125 2.890625 -5.078125 C 3.085938 -5.078125 3.269531 -5.0625 3.4375 -5.03125 C 3.613281 -5 3.773438 -4.953125 3.921875 -4.890625 C 4.066406 -4.835938 4.203125 -4.769531 4.328125 -4.6875 C 4.453125 -4.613281 4.566406 -4.53125 4.671875 -4.4375 L 4.46875 -4.125 C 4.445312 -4.082031 4.410156 -4.050781 4.359375 -4.03125 C 4.304688 -4.019531 4.253906 -4.035156 4.203125 -4.078125 C 4.140625 -4.109375 4.070312 -4.144531 4 -4.1875 C 3.9375 -4.238281 3.851562 -4.285156 3.75 -4.328125 C 3.644531 -4.367188 3.519531 -4.40625 3.375 -4.4375 C 3.226562 -4.46875 3.0625 -4.484375 2.875 -4.484375 C 2.59375 -4.484375 2.335938 -4.4375 2.109375 -4.34375 C 1.878906 -4.25 1.679688 -4.113281 1.515625 -3.9375 C 1.359375 -3.769531 1.234375 -3.566406 1.140625 -3.328125 C 1.054688 -3.085938 1.015625 -2.8125 1.015625 -2.5 C 1.015625 -2.1875 1.0625 -1.90625 1.15625 -1.65625 C 1.25 -1.40625 1.378906 -1.191406 1.546875 -1.015625 C 1.710938 -0.847656 1.910156 -0.71875 2.140625 -0.625 C 2.378906 -0.539062 2.648438 -0.5 2.953125 -0.5 C 3.179688 -0.5 3.382812 -0.523438 3.5625 -0.578125 C 3.75 -0.628906 3.929688 -0.703125 4.109375 -0.796875 L 4.109375 -1.890625 L 3.328125 -1.890625 C 3.273438 -1.890625 3.234375 -1.898438 3.203125 -1.921875 C 3.179688 -1.953125 3.171875 -1.988281 3.171875 -2.03125 L 3.171875 -2.40625 Z M 4.71875 -2.40625 "/></g></g></g><g fill="#ffbd59" fill-opacity="1"><g transform="translate(168.091206, 284.238811)"><g><path d="M 3.296875 -1.859375 L 2.515625 -3.90625 C 2.492188 -3.96875 2.46875 -4.035156 2.4375 -4.109375 C 2.414062 -4.191406 2.394531 -4.28125 2.375 -4.375 C 2.320312 -4.1875 2.269531 -4.03125 2.21875 -3.90625 L 1.4375 -1.859375 Z M 4.71875 0 L 4.1875 0 C 4.132812 0 4.085938 -0.015625 4.046875 -0.046875 C 4.003906 -0.078125 3.976562 -0.113281 3.96875 -0.15625 L 3.5 -1.375 L 1.25 -1.375 L 0.78125 -0.15625 C 0.757812 -0.113281 0.726562 -0.078125 0.6875 -0.046875 C 0.65625 -0.015625 0.609375 0 0.546875 0 L 0.015625 0 L 2.03125 -5.015625 L 2.71875 -5.015625 Z M 4.71875 0 "/></g></g></g><g fill="#ffbd59" fill-opacity="1"><g transform="translate(178.430258, 284.238811)"><g><path d="M 3.484375 -0.578125 L 3.484375 0 L 0.640625 0 L 0.640625 -5.015625 L 1.3125 -5.015625 L 1.3125 -0.578125 Z M 3.484375 -0.578125 "/></g></g></g><g fill="#ffbd59" fill-opacity="1"><g transform="translate(187.624804, 284.238811)"><g/></g></g><g fill="#ffbd59" fill-opacity="1"><g transform="translate(195.016832, 284.238811)"><g><path d="M 2.125 -2.421875 C 2.3125 -2.421875 2.476562 -2.441406 2.625 -2.484375 C 2.78125 -2.535156 2.90625 -2.609375 3 -2.703125 C 3.101562 -2.796875 3.179688 -2.90625 3.234375 -3.03125 C 3.285156 -3.164062 3.3125 -3.3125 3.3125 -3.46875 C 3.3125 -3.78125 3.210938 -4.023438 3.015625 -4.203125 C 2.816406 -4.390625 2.519531 -4.484375 2.125 -4.484375 L 1.3125 -4.484375 L 1.3125 -2.421875 Z M 2.125 -5.015625 C 2.4375 -5.015625 2.707031 -4.976562 2.9375 -4.90625 C 3.175781 -4.832031 3.375 -4.726562 3.53125 -4.59375 C 3.6875 -4.457031 3.800781 -4.289062 3.875 -4.09375 C 3.945312 -3.90625 3.984375 -3.695312 3.984375 -3.46875 C 3.984375 -3.226562 3.941406 -3.007812 3.859375 -2.8125 C 3.785156 -2.625 3.664062 -2.457031 3.5 -2.3125 C 3.34375 -2.175781 3.148438 -2.066406 2.921875 -1.984375 C 2.691406 -1.910156 2.425781 -1.875 2.125 -1.875 L 1.3125 -1.875 L 1.3125 0 L 0.640625 0 L 0.640625 -5.015625 Z M 2.125 -5.015625 "/></g></g></g><g fill="#ffbd59" fill-opacity="1"><g transform="translate(204.820384, 284.238811)"><g><path d="M 3.296875 -1.859375 L 2.515625 -3.90625 C 2.492188 -3.96875 2.46875 -4.035156 2.4375 -4.109375 C 2.414062 -4.191406 2.394531 -4.28125 2.375 -4.375 C 2.320312 -4.1875 2.269531 -4.03125 2.21875 -3.90625 L 1.4375 -1.859375 Z M 4.71875 0 L 4.1875 0 C 4.132812 0 4.085938 -0.015625 4.046875 -0.046875 C 4.003906 -0.078125 3.976562 -0.113281 3.96875 -0.15625 L 3.5 -1.375 L 1.25 -1.375 L 0.78125 -0.15625 C 0.757812 -0.113281 0.726562 -0.078125 0.6875 -0.046875 C 0.65625 -0.015625 0.609375 0 0.546875 0 L 0.015625 0 L 2.03125 -5.015625 L 2.71875 -5.015625 Z M 4.71875 0 "/></g></g></g><g fill="#ffbd59" fill-opacity="1"><g transform="translate(215.159435, 284.238811)"><g><path d="M 2.03125 -2.59375 C 2.226562 -2.59375 2.398438 -2.613281 2.546875 -2.65625 C 2.703125 -2.707031 2.828125 -2.773438 2.921875 -2.859375 C 3.023438 -2.953125 3.101562 -3.054688 3.15625 -3.171875 C 3.207031 -3.296875 3.234375 -3.429688 3.234375 -3.578125 C 3.234375 -3.878906 3.132812 -4.101562 2.9375 -4.25 C 2.738281 -4.40625 2.445312 -4.484375 2.0625 -4.484375 L 1.3125 -4.484375 L 1.3125 -2.59375 Z M 4.34375 0 L 3.75 0 C 3.625 0 3.53125 -0.046875 3.46875 -0.140625 L 2.171875 -1.9375 C 2.128906 -1.988281 2.082031 -2.023438 2.03125 -2.046875 C 1.988281 -2.078125 1.921875 -2.09375 1.828125 -2.09375 L 1.3125 -2.09375 L 1.3125 0 L 0.640625 0 L 0.640625 -5.015625 L 2.0625 -5.015625 C 2.375 -5.015625 2.644531 -4.984375 2.875 -4.921875 C 3.113281 -4.859375 3.304688 -4.765625 3.453125 -4.640625 C 3.597656 -4.515625 3.707031 -4.363281 3.78125 -4.1875 C 3.851562 -4.019531 3.890625 -3.832031 3.890625 -3.625 C 3.890625 -3.445312 3.863281 -3.28125 3.8125 -3.125 C 3.757812 -2.96875 3.675781 -2.828125 3.5625 -2.703125 C 3.457031 -2.585938 3.328125 -2.484375 3.171875 -2.390625 C 3.023438 -2.304688 2.851562 -2.242188 2.65625 -2.203125 C 2.75 -2.148438 2.828125 -2.078125 2.890625 -1.984375 Z M 4.34375 0 "/></g></g></g><g fill="#ffbd59" fill-opacity="1"><g transform="translate(225.144984, 284.238811)"><g><path d="M 4.03125 -4.4375 L 2.40625 -4.4375 L 2.40625 0 L 1.734375 0 L 1.734375 -4.4375 L 0.109375 -4.4375 L 0.109375 -5.015625 L 4.03125 -5.015625 Z M 4.03125 -4.4375 "/></g></g></g><g fill="#ffbd59" fill-opacity="1"><g transform="translate(234.878529, 284.238811)"><g><path d="M 4.703125 -5.015625 L 4.703125 0 L 4.359375 0 C 4.304688 0 4.257812 -0.0078125 4.21875 -0.03125 C 4.1875 -0.0507812 4.15625 -0.0820312 4.125 -0.125 L 1.21875 -3.90625 C 1.226562 -3.84375 1.234375 -3.78125 1.234375 -3.71875 C 1.234375 -3.664062 1.234375 -3.617188 1.234375 -3.578125 L 1.234375 0 L 0.640625 0 L 0.640625 -5.015625 L 0.984375 -5.015625 C 1.015625 -5.015625 1.039062 -5.007812 1.0625 -5 C 1.082031 -5 1.097656 -4.992188 1.109375 -4.984375 C 1.128906 -4.984375 1.148438 -4.972656 1.171875 -4.953125 C 1.191406 -4.941406 1.207031 -4.925781 1.21875 -4.90625 L 4.125 -1.125 C 4.125 -1.1875 4.117188 -1.242188 4.109375 -1.296875 C 4.109375 -1.359375 4.109375 -1.414062 4.109375 -1.46875 L 4.109375 -5.015625 Z M 4.703125 -5.015625 "/></g></g></g><g fill="#ffbd59" fill-opacity="1"><g transform="translate(245.823078, 284.238811)"><g><path d="M 3.734375 -0.546875 L 3.734375 0 L 0.640625 0 L 0.640625 -5.015625 L 3.734375 -5.015625 L 3.734375 -4.46875 L 1.3125 -4.46875 L 1.3125 -2.796875 L 3.265625 -2.796875 L 3.265625 -2.265625 L 1.3125 -2.265625 L 1.3125 -0.546875 Z M 3.734375 -0.546875 "/></g></g></g><g fill="#ffbd59" fill-opacity="1"><g transform="translate(255.465629, 284.238811)"><g><path d="M 2.03125 -2.59375 C 2.226562 -2.59375 2.398438 -2.613281 2.546875 -2.65625 C 2.703125 -2.707031 2.828125 -2.773438 2.921875 -2.859375 C 3.023438 -2.953125 3.101562 -3.054688 3.15625 -3.171875 C 3.207031 -3.296875 3.234375 -3.429688 3.234375 -3.578125 C 3.234375 -3.878906 3.132812 -4.101562 2.9375 -4.25 C 2.738281 -4.40625 2.445312 -4.484375 2.0625 -4.484375 L 1.3125 -4.484375 L 1.3125 -2.59375 Z M 4.34375 0 L 3.75 0 C 3.625 0 3.53125 -0.046875 3.46875 -0.140625 L 2.171875 -1.9375 C 2.128906 -1.988281 2.082031 -2.023438 2.03125 -2.046875 C 1.988281 -2.078125 1.921875 -2.09375 1.828125 -2.09375 L 1.3125 -2.09375 L 1.3125 0 L 0.640625 0 L 0.640625 -5.015625 L 2.0625 -5.015625 C 2.375 -5.015625 2.644531 -4.984375 2.875 -4.921875 C 3.113281 -4.859375 3.304688 -4.765625 3.453125 -4.640625 C 3.597656 -4.515625 3.707031 -4.363281 3.78125 -4.1875 C 3.851562 -4.019531 3.890625 -3.832031 3.890625 -3.625 C 3.890625 -3.445312 3.863281 -3.28125 3.8125 -3.125 C 3.757812 -2.96875 3.675781 -2.828125 3.5625 -2.703125 C 3.457031 -2.585938 3.328125 -2.484375 3.171875 -2.390625 C 3.023438 -2.304688 2.851562 -2.242188 2.65625 -2.203125 C 2.75 -2.148438 2.828125 -2.078125 2.890625 -1.984375 Z M 4.34375 0 "/></g></g></g><g fill="#ffbd59" fill-opacity="1"><g transform="translate(265.451169, 284.238811)"><g/></g></g><g fill="#ffbd59" fill-opacity="1"><g transform="translate(272.843197, 284.238811)"><g><path d="M 1.3125 0 L 0.640625 0 L 0.640625 -5.015625 L 1.3125 -5.015625 Z M 1.3125 0 "/></g></g></g><g fill="#ffbd59" fill-opacity="1"><g transform="translate(280.403222, 284.238811)"><g><path d="M 4.703125 -5.015625 L 4.703125 0 L 4.359375 0 C 4.304688 0 4.257812 -0.0078125 4.21875 -0.03125 C 4.1875 -0.0507812 4.15625 -0.0820312 4.125 -0.125 L 1.21875 -3.90625 C 1.226562 -3.84375 1.234375 -3.78125 1.234375 -3.71875 C 1.234375 -3.664062 1.234375 -3.617188 1.234375 -3.578125 L 1.234375 0 L 0.640625 0 L 0.640625 -5.015625 L 0.984375 -5.015625 C 1.015625 -5.015625 1.039062 -5.007812 1.0625 -5 C 1.082031 -5 1.097656 -4.992188 1.109375 -4.984375 C 1.128906 -4.984375 1.148438 -4.972656 1.171875 -4.953125 C 1.191406 -4.941406 1.207031 -4.925781 1.21875 -4.90625 L 4.125 -1.125 C 4.125 -1.1875 4.117188 -1.242188 4.109375 -1.296875 C 4.109375 -1.359375 4.109375 -1.414062 4.109375 -1.46875 L 4.109375 -5.015625 Z M 4.703125 -5.015625 "/></g></g></g><g fill="#ffbd59" fill-opacity="1"><g transform="translate(151.686942, 293.572159)"><g><path d="M 2.40625 -0.53125 C 2.59375 -0.53125 2.753906 -0.550781 2.890625 -0.59375 C 3.035156 -0.644531 3.148438 -0.707031 3.234375 -0.78125 C 3.328125 -0.863281 3.394531 -0.960938 3.4375 -1.078125 C 3.476562 -1.191406 3.5 -1.316406 3.5 -1.453125 C 3.5 -1.703125 3.40625 -1.898438 3.21875 -2.046875 C 3.039062 -2.203125 2.769531 -2.28125 2.40625 -2.28125 L 1.3125 -2.28125 L 1.3125 -0.53125 Z M 1.3125 -4.484375 L 1.3125 -2.765625 L 2.21875 -2.765625 C 2.40625 -2.765625 2.566406 -2.785156 2.703125 -2.828125 C 2.847656 -2.867188 2.96875 -2.925781 3.0625 -3 C 3.15625 -3.082031 3.222656 -3.175781 3.265625 -3.28125 C 3.304688 -3.382812 3.328125 -3.5 3.328125 -3.625 C 3.328125 -3.925781 3.238281 -4.144531 3.0625 -4.28125 C 2.882812 -4.414062 2.609375 -4.484375 2.234375 -4.484375 Z M 2.234375 -5.015625 C 2.546875 -5.015625 2.8125 -4.984375 3.03125 -4.921875 C 3.257812 -4.859375 3.441406 -4.769531 3.578125 -4.65625 C 3.722656 -4.550781 3.828125 -4.414062 3.890625 -4.25 C 3.960938 -4.09375 4 -3.910156 4 -3.703125 C 4 -3.578125 3.976562 -3.457031 3.9375 -3.34375 C 3.90625 -3.238281 3.847656 -3.132812 3.765625 -3.03125 C 3.691406 -2.9375 3.59375 -2.847656 3.46875 -2.765625 C 3.351562 -2.691406 3.21875 -2.628906 3.0625 -2.578125 C 3.4375 -2.503906 3.710938 -2.367188 3.890625 -2.171875 C 4.078125 -1.984375 4.171875 -1.734375 4.171875 -1.421875 C 4.171875 -1.210938 4.128906 -1.019531 4.046875 -0.84375 C 3.972656 -0.664062 3.859375 -0.515625 3.703125 -0.390625 C 3.554688 -0.265625 3.375 -0.164062 3.15625 -0.09375 C 2.9375 -0.03125 2.6875 0 2.40625 0 L 0.640625 0 L 0.640625 -5.015625 Z M 2.234375 -5.015625 "/></g></g></g><g fill="#ffbd59" fill-opacity="1"><g transform="translate(161.812491, 293.572159)"><g><path d="M 2.578125 -0.53125 C 2.785156 -0.53125 2.96875 -0.566406 3.125 -0.640625 C 3.289062 -0.710938 3.429688 -0.8125 3.546875 -0.9375 C 3.660156 -1.0625 3.742188 -1.210938 3.796875 -1.390625 C 3.859375 -1.566406 3.890625 -1.757812 3.890625 -1.96875 L 3.890625 -5.015625 L 4.578125 -5.015625 L 4.578125 -1.96875 C 4.578125 -1.675781 4.53125 -1.40625 4.4375 -1.15625 C 4.34375 -0.914062 4.207031 -0.703125 4.03125 -0.515625 C 3.863281 -0.335938 3.65625 -0.195312 3.40625 -0.09375 C 3.15625 0.0078125 2.878906 0.0625 2.578125 0.0625 C 2.265625 0.0625 1.984375 0.0078125 1.734375 -0.09375 C 1.492188 -0.195312 1.285156 -0.335938 1.109375 -0.515625 C 0.941406 -0.703125 0.8125 -0.914062 0.71875 -1.15625 C 0.625 -1.40625 0.578125 -1.675781 0.578125 -1.96875 L 0.578125 -5.015625 L 1.25 -5.015625 L 1.25 -1.96875 C 1.25 -1.757812 1.28125 -1.566406 1.34375 -1.390625 C 1.40625 -1.210938 1.488281 -1.0625 1.59375 -0.9375 C 1.707031 -0.8125 1.847656 -0.710938 2.015625 -0.640625 C 2.179688 -0.566406 2.367188 -0.53125 2.578125 -0.53125 Z M 2.578125 -0.53125 "/></g></g></g><g fill="#ffbd59" fill-opacity="1"><g transform="translate(172.561046, 293.572159)"><g><path d="M 3.203125 -4.234375 C 3.179688 -4.191406 3.15625 -4.160156 3.125 -4.140625 C 3.101562 -4.128906 3.078125 -4.125 3.046875 -4.125 C 3.003906 -4.125 2.957031 -4.144531 2.90625 -4.1875 C 2.851562 -4.226562 2.785156 -4.269531 2.703125 -4.3125 C 2.628906 -4.363281 2.535156 -4.410156 2.421875 -4.453125 C 2.304688 -4.492188 2.164062 -4.515625 2 -4.515625 C 1.851562 -4.515625 1.722656 -4.492188 1.609375 -4.453125 C 1.492188 -4.410156 1.394531 -4.351562 1.3125 -4.28125 C 1.238281 -4.207031 1.179688 -4.125 1.140625 -4.03125 C 1.097656 -3.9375 1.078125 -3.835938 1.078125 -3.734375 C 1.078125 -3.585938 1.109375 -3.46875 1.171875 -3.375 C 1.242188 -3.28125 1.335938 -3.203125 1.453125 -3.140625 C 1.566406 -3.078125 1.691406 -3.019531 1.828125 -2.96875 C 1.972656 -2.925781 2.117188 -2.878906 2.265625 -2.828125 C 2.421875 -2.773438 2.570312 -2.71875 2.71875 -2.65625 C 2.863281 -2.59375 2.992188 -2.507812 3.109375 -2.40625 C 3.222656 -2.3125 3.3125 -2.191406 3.375 -2.046875 C 3.445312 -1.898438 3.484375 -1.722656 3.484375 -1.515625 C 3.484375 -1.296875 3.445312 -1.085938 3.375 -0.890625 C 3.300781 -0.703125 3.191406 -0.535156 3.046875 -0.390625 C 2.898438 -0.253906 2.722656 -0.144531 2.515625 -0.0625 C 2.304688 0.0195312 2.066406 0.0625 1.796875 0.0625 C 1.472656 0.0625 1.175781 0.00390625 0.90625 -0.109375 C 0.644531 -0.234375 0.421875 -0.394531 0.234375 -0.59375 L 0.421875 -0.921875 C 0.441406 -0.941406 0.460938 -0.960938 0.484375 -0.984375 C 0.515625 -1.003906 0.546875 -1.015625 0.578125 -1.015625 C 0.609375 -1.015625 0.644531 -1 0.6875 -0.96875 C 0.726562 -0.945312 0.769531 -0.914062 0.8125 -0.875 C 0.863281 -0.84375 0.921875 -0.800781 0.984375 -0.75 C 1.046875 -0.707031 1.117188 -0.664062 1.203125 -0.625 C 1.285156 -0.59375 1.375 -0.5625 1.46875 -0.53125 C 1.570312 -0.507812 1.691406 -0.5 1.828125 -0.5 C 1.984375 -0.5 2.125 -0.519531 2.25 -0.5625 C 2.375 -0.613281 2.476562 -0.675781 2.5625 -0.75 C 2.65625 -0.832031 2.722656 -0.929688 2.765625 -1.046875 C 2.816406 -1.160156 2.84375 -1.285156 2.84375 -1.421875 C 2.84375 -1.578125 2.804688 -1.703125 2.734375 -1.796875 C 2.671875 -1.890625 2.582031 -1.96875 2.46875 -2.03125 C 2.351562 -2.101562 2.222656 -2.160156 2.078125 -2.203125 C 1.941406 -2.253906 1.796875 -2.300781 1.640625 -2.34375 C 1.492188 -2.394531 1.347656 -2.453125 1.203125 -2.515625 C 1.054688 -2.578125 0.925781 -2.65625 0.8125 -2.75 C 0.707031 -2.851562 0.617188 -2.976562 0.546875 -3.125 C 0.472656 -3.28125 0.4375 -3.46875 0.4375 -3.6875 C 0.4375 -3.863281 0.472656 -4.035156 0.546875 -4.203125 C 0.617188 -4.367188 0.71875 -4.515625 0.84375 -4.640625 C 0.976562 -4.773438 1.140625 -4.878906 1.328125 -4.953125 C 1.523438 -5.035156 1.75 -5.078125 2 -5.078125 C 2.28125 -5.078125 2.535156 -5.03125 2.765625 -4.9375 C 2.992188 -4.851562 3.195312 -4.722656 3.375 -4.546875 Z M 3.203125 -4.234375 "/></g></g></g><g fill="#ffbd59" fill-opacity="1"><g transform="translate(181.958586, 293.572159)"><g><path d="M 1.3125 0 L 0.640625 0 L 0.640625 -5.015625 L 1.3125 -5.015625 Z M 1.3125 0 "/></g></g></g><g fill="#ffbd59" fill-opacity="1"><g transform="translate(189.518615, 293.572159)"><g><path d="M 4.703125 -5.015625 L 4.703125 0 L 4.359375 0 C 4.304688 0 4.257812 -0.0078125 4.21875 -0.03125 C 4.1875 -0.0507812 4.15625 -0.0820312 4.125 -0.125 L 1.21875 -3.90625 C 1.226562 -3.84375 1.234375 -3.78125 1.234375 -3.71875 C 1.234375 -3.664062 1.234375 -3.617188 1.234375 -3.578125 L 1.234375 0 L 0.640625 0 L 0.640625 -5.015625 L 0.984375 -5.015625 C 1.015625 -5.015625 1.039062 -5.007812 1.0625 -5 C 1.082031 -5 1.097656 -4.992188 1.109375 -4.984375 C 1.128906 -4.984375 1.148438 -4.972656 1.171875 -4.953125 C 1.191406 -4.941406 1.207031 -4.925781 1.21875 -4.90625 L 4.125 -1.125 C 4.125 -1.1875 4.117188 -1.242188 4.109375 -1.296875 C 4.109375 -1.359375 4.109375 -1.414062 4.109375 -1.46875 L 4.109375 -5.015625 Z M 4.703125 -5.015625 "/></g></g></g><g fill="#ffbd59" fill-opacity="1"><g transform="translate(200.463169, 293.572159)"><g><path d="M 3.734375 -0.546875 L 3.734375 0 L 0.640625 0 L 0.640625 -5.015625 L 3.734375 -5.015625 L 3.734375 -4.46875 L 1.3125 -4.46875 L 1.3125 -2.796875 L 3.265625 -2.796875 L 3.265625 -2.265625 L 1.3125 -2.265625 L 1.3125 -0.546875 Z M 3.734375 -0.546875 "/></g></g></g><g fill="#ffbd59" fill-opacity="1"><g transform="translate(210.105715, 293.572159)"><g><path d="M 3.203125 -4.234375 C 3.179688 -4.191406 3.15625 -4.160156 3.125 -4.140625 C 3.101562 -4.128906 3.078125 -4.125 3.046875 -4.125 C 3.003906 -4.125 2.957031 -4.144531 2.90625 -4.1875 C 2.851562 -4.226562 2.785156 -4.269531 2.703125 -4.3125 C 2.628906 -4.363281 2.535156 -4.410156 2.421875 -4.453125 C 2.304688 -4.492188 2.164062 -4.515625 2 -4.515625 C 1.851562 -4.515625 1.722656 -4.492188 1.609375 -4.453125 C 1.492188 -4.410156 1.394531 -4.351562 1.3125 -4.28125 C 1.238281 -4.207031 1.179688 -4.125 1.140625 -4.03125 C 1.097656 -3.9375 1.078125 -3.835938 1.078125 -3.734375 C 1.078125 -3.585938 1.109375 -3.46875 1.171875 -3.375 C 1.242188 -3.28125 1.335938 -3.203125 1.453125 -3.140625 C 1.566406 -3.078125 1.691406 -3.019531 1.828125 -2.96875 C 1.972656 -2.925781 2.117188 -2.878906 2.265625 -2.828125 C 2.421875 -2.773438 2.570312 -2.71875 2.71875 -2.65625 C 2.863281 -2.59375 2.992188 -2.507812 3.109375 -2.40625 C 3.222656 -2.3125 3.3125 -2.191406 3.375 -2.046875 C 3.445312 -1.898438 3.484375 -1.722656 3.484375 -1.515625 C 3.484375 -1.296875 3.445312 -1.085938 3.375 -0.890625 C 3.300781 -0.703125 3.191406 -0.535156 3.046875 -0.390625 C 2.898438 -0.253906 2.722656 -0.144531 2.515625 -0.0625 C 2.304688 0.0195312 2.066406 0.0625 1.796875 0.0625 C 1.472656 0.0625 1.175781 0.00390625 0.90625 -0.109375 C 0.644531 -0.234375 0.421875 -0.394531 0.234375 -0.59375 L 0.421875 -0.921875 C 0.441406 -0.941406 0.460938 -0.960938 0.484375 -0.984375 C 0.515625 -1.003906 0.546875 -1.015625 0.578125 -1.015625 C 0.609375 -1.015625 0.644531 -1 0.6875 -0.96875 C 0.726562 -0.945312 0.769531 -0.914062 0.8125 -0.875 C 0.863281 -0.84375 0.921875 -0.800781 0.984375 -0.75 C 1.046875 -0.707031 1.117188 -0.664062 1.203125 -0.625 C 1.285156 -0.59375 1.375 -0.5625 1.46875 -0.53125 C 1.570312 -0.507812 1.691406 -0.5 1.828125 -0.5 C 1.984375 -0.5 2.125 -0.519531 2.25 -0.5625 C 2.375 -0.613281 2.476562 -0.675781 2.5625 -0.75 C 2.65625 -0.832031 2.722656 -0.929688 2.765625 -1.046875 C 2.816406 -1.160156 2.84375 -1.285156 2.84375 -1.421875 C 2.84375 -1.578125 2.804688 -1.703125 2.734375 -1.796875 C 2.671875 -1.890625 2.582031 -1.96875 2.46875 -2.03125 C 2.351562 -2.101562 2.222656 -2.160156 2.078125 -2.203125 C 1.941406 -2.253906 1.796875 -2.300781 1.640625 -2.34375 C 1.492188 -2.394531 1.347656 -2.453125 1.203125 -2.515625 C 1.054688 -2.578125 0.925781 -2.65625 0.8125 -2.75 C 0.707031 -2.851562 0.617188 -2.976562 0.546875 -3.125 C 0.472656 -3.28125 0.4375 -3.46875 0.4375 -3.6875 C 0.4375 -3.863281 0.472656 -4.035156 0.546875 -4.203125 C 0.617188 -4.367188 0.71875 -4.515625 0.84375 -4.640625 C 0.976562 -4.773438 1.140625 -4.878906 1.328125 -4.953125 C 1.523438 -5.035156 1.75 -5.078125 2 -5.078125 C 2.28125 -5.078125 2.535156 -5.03125 2.765625 -4.9375 C 2.992188 -4.851562 3.195312 -4.722656 3.375 -4.546875 Z M 3.203125 -4.234375 "/></g></g></g><g fill="#ffbd59" fill-opacity="1"><g transform="translate(219.503252, 293.572159)"><g><path d="M 3.203125 -4.234375 C 3.179688 -4.191406 3.15625 -4.160156 3.125 -4.140625 C 3.101562 -4.128906 3.078125 -4.125 3.046875 -4.125 C 3.003906 -4.125 2.957031 -4.144531 2.90625 -4.1875 C 2.851562 -4.226562 2.785156 -4.269531 2.703125 -4.3125 C 2.628906 -4.363281 2.535156 -4.410156 2.421875 -4.453125 C 2.304688 -4.492188 2.164062 -4.515625 2 -4.515625 C 1.851562 -4.515625 1.722656 -4.492188 1.609375 -4.453125 C 1.492188 -4.410156 1.394531 -4.351562 1.3125 -4.28125 C 1.238281 -4.207031 1.179688 -4.125 1.140625 -4.03125 C 1.097656 -3.9375 1.078125 -3.835938 1.078125 -3.734375 C 1.078125 -3.585938 1.109375 -3.46875 1.171875 -3.375 C 1.242188 -3.28125 1.335938 -3.203125 1.453125 -3.140625 C 1.566406 -3.078125 1.691406 -3.019531 1.828125 -2.96875 C 1.972656 -2.925781 2.117188 -2.878906 2.265625 -2.828125 C 2.421875 -2.773438 2.570312 -2.71875 2.71875 -2.65625 C 2.863281 -2.59375 2.992188 -2.507812 3.109375 -2.40625 C 3.222656 -2.3125 3.3125 -2.191406 3.375 -2.046875 C 3.445312 -1.898438 3.484375 -1.722656 3.484375 -1.515625 C 3.484375 -1.296875 3.445312 -1.085938 3.375 -0.890625 C 3.300781 -0.703125 3.191406 -0.535156 3.046875 -0.390625 C 2.898438 -0.253906 2.722656 -0.144531 2.515625 -0.0625 C 2.304688 0.0195312 2.066406 0.0625 1.796875 0.0625 C 1.472656 0.0625 1.175781 0.00390625 0.90625 -0.109375 C 0.644531 -0.234375 0.421875 -0.394531 0.234375 -0.59375 L 0.421875 -0.921875 C 0.441406 -0.941406 0.460938 -0.960938 0.484375 -0.984375 C 0.515625 -1.003906 0.546875 -1.015625 0.578125 -1.015625 C 0.609375 -1.015625 0.644531 -1 0.6875 -0.96875 C 0.726562 -0.945312 0.769531 -0.914062 0.8125 -0.875 C 0.863281 -0.84375 0.921875 -0.800781 0.984375 -0.75 C 1.046875 -0.707031 1.117188 -0.664062 1.203125 -0.625 C 1.285156 -0.59375 1.375 -0.5625 1.46875 -0.53125 C 1.570312 -0.507812 1.691406 -0.5 1.828125 -0.5 C 1.984375 -0.5 2.125 -0.519531 2.25 -0.5625 C 2.375 -0.613281 2.476562 -0.675781 2.5625 -0.75 C 2.65625 -0.832031 2.722656 -0.929688 2.765625 -1.046875 C 2.816406 -1.160156 2.84375 -1.285156 2.84375 -1.421875 C 2.84375 -1.578125 2.804688 -1.703125 2.734375 -1.796875 C 2.671875 -1.890625 2.582031 -1.96875 2.46875 -2.03125 C 2.351562 -2.101562 2.222656 -2.160156 2.078125 -2.203125 C 1.941406 -2.253906 1.796875 -2.300781 1.640625 -2.34375 C 1.492188 -2.394531 1.347656 -2.453125 1.203125 -2.515625 C 1.054688 -2.578125 0.925781 -2.65625 0.8125 -2.75 C 0.707031 -2.851562 0.617188 -2.976562 0.546875 -3.125 C 0.472656 -3.28125 0.4375 -3.46875 0.4375 -3.6875 C 0.4375 -3.863281 0.472656 -4.035156 0.546875 -4.203125 C 0.617188 -4.367188 0.71875 -4.515625 0.84375 -4.640625 C 0.976562 -4.773438 1.140625 -4.878906 1.328125 -4.953125 C 1.523438 -5.035156 1.75 -5.078125 2 -5.078125 C 2.28125 -5.078125 2.535156 -5.03125 2.765625 -4.9375 C 2.992188 -4.851562 3.195312 -4.722656 3.375 -4.546875 Z M 3.203125 -4.234375 "/></g></g></g></svg>